<svg width="100px" height="100px" viewBox="0 0 6 6" fill="none" xmlns="http://www.w3.org/2000/svg"><g id="profile"><g id="profile_2"><path id="Combined Shape" fill-rule="evenodd" clip-rule="evenodd" d="M4.029 2.787a1.371 1.371 0 0 1 -1.029 0.463c-0.759 0 -1.375 -0.616 -1.375 -1.375 0 -0.759 0.616 -1.375 1.375 -1.375s1.375 0.616 1.375 1.375c0 0.26 -0.072 0.503 -0.198 0.711C4.675 2.908 5 3.431 5 4.023v1.099c0 0.207 -0.168 0.375 -0.375 0.375H1.375a0.375 0.375 0 0 1 -0.375 -0.375v-1.099c0 -0.451 0.19 -0.876 0.525 -1.201a0.125 0.125 0 0 1 0.174 0.179c-0.288 0.279 -0.449 0.64 -0.449 1.022v1.099a0.125 0.125 0 0 0 0.125 0.125h3.25c0.069 0 0.125 -0.056 0.125 -0.125v-1.099c0 -0.506 -0.283 -0.958 -0.721 -1.236m-0.228 -0.123A1.125 1.125 0 1 1 4.125 1.875a1.12 1.12 0 0 1 -0.166 0.588c-0.285 -0.139 -0.612 -0.217 -0.96 -0.217a0.125 0.125 0 1 0 0 0.25c0.289 0 0.562 0.061 0.801 0.169" fill="#000000"/></g></g></svg>